<svg xmlns="http://www.w3.org/2000/svg" viewBox="0 0 512 512">
  <rect width="512" height="512" rx="112" fill="#0d0d12"/>
  <rect width="512" height="512" rx="112" fill="url(#grad)" opacity="0.3"/>
  <path d="M256 120C176.5 120 112 184.5 112 264C112 343.5 176.5 408 256 408C335.5 408 400 343.5 400 264C400 184.5 335.5 120 256 120ZM256 360C203 360 160 317 160 264C160 211 203 168 256 168C309 168 352 211 352 264C352 317 309 360 256 360Z" fill="#8b5cf6"/>
  <path d="M256 200C220.7 200 192 228.7 192 264C192 299.3 220.7 328 256 328C291.3 328 320 299.3 320 264C320 228.7 291.3 200 256 200Z" fill="#ec4899"/>
  <defs>
    <linearGradient id="grad" x1="0" y1="0" x2="512" y2="512" gradientUnits="userSpaceOnUse">
      <stop stop-color="#8b5cf6"/>
      <stop offset="1" stop-color="#ec4899"/>
    </linearGradient>
  </defs>
</svg>
